<svg xmlns="http://www.w3.org/2000/svg" viewBox="0 0 100 100">
  <style>
    .p { fill: #1a1a1a; }
    .c { fill: #fff; }
    @media (prefers-color-scheme: dark) {
      .p { fill: #fff; }
      .c { fill: #1a1a1a; }
    }
  </style>
  <g transform="translate(50,50)">
    <!-- Petals: narrow at base, broad and rounded at tip — hellebore shaped -->
    <path class="p" d="M-3,-8 C-10,-13 -14,-24 -10,-32 C-5,-38 5,-38 10,-32 C14,-24 10,-13 3,-8Z" transform="rotate(0)"/>
    <path class="p" d="M-3,-8 C-10,-13 -14,-24 -10,-32 C-5,-38 5,-38 10,-32 C14,-24 10,-13 3,-8Z" transform="rotate(72)"/>
    <path class="p" d="M-3,-8 C-10,-13 -14,-24 -10,-32 C-5,-38 5,-38 10,-32 C14,-24 10,-13 3,-8Z" transform="rotate(144)"/>
    <path class="p" d="M-3,-8 C-10,-13 -14,-24 -10,-32 C-5,-38 5,-38 10,-32 C14,-24 10,-13 3,-8Z" transform="rotate(216)"/>
    <path class="p" d="M-3,-8 C-10,-13 -14,-24 -10,-32 C-5,-38 5,-38 10,-32 C14,-24 10,-13 3,-8Z" transform="rotate(288)"/>
    <!-- Small center dot -->
    <circle class="c" r="8"/>
  </g>
</svg>
